# Blender v3.0.0 OBJ File: 'robot_delivery_models.blend1'
# www.blender.org
o Cube.004_Cube.006
v -2.833340 -10.444262 2.799053
v -2.833340 10.444262 2.799053
v -2.833340 -10.444262 -2.799053
v -2.833340 10.444262 -2.799053
v 2.833340 -10.444262 2.799053
v 2.833340 10.444262 2.799053
v 2.833340 -10.444262 -2.799053
v 2.833340 10.444262 -2.799053
vt 0.227000 0.226761
vt 0.783838 0.780542
vt 0.227000 0.780542
vt 0.228400 0.227967
vt 0.782814 0.779336
vt 0.228400 0.779336
vt 0.227646 0.225538
vt 0.782442 0.777287
vt 0.227646 0.777287
vt 0.226609 0.227399
vt 0.784792 0.782517
vt 0.226609 0.782517
vt 0.653789 0.508566
vt 0.596211 0.491434
vt 0.596211 0.508566
vt 0.459266 0.531306
vt 0.449459 0.534801
vt 0.449459 0.531306
vt 0.783838 0.226761
vt 0.782814 0.227966
vt 0.782442 0.225537
vt 0.784792 0.227399
vt 0.653789 0.491434
vt 0.459266 0.534801
vn -1.0000 0.0000 0.0000
vn 0.0000 0.0000 -1.0000
vn 1.0000 0.0000 0.0000
vn 0.0000 0.0000 1.0000
vn 0.0000 -1.0000 0.0000
vn 0.0000 1.0000 0.0000
s off
f 2/1/1 3/2/1 1/3/1
f 4/4/2 7/5/2 3/6/2
f 8/7/3 5/8/3 7/9/3
f 6/10/4 1/11/4 5/12/4
f 7/13/5 1/14/5 3/15/5
f 4/16/6 6/17/6 8/18/6
f 2/1/1 4/19/1 3/2/1
f 4/4/2 8/20/2 7/5/2
f 8/7/3 6/21/3 5/8/3
f 6/10/4 2/22/4 1/11/4
f 7/13/5 5/23/5 1/14/5
f 4/16/6 2/24/6 6/17/6
