# Blender v3.0.0 OBJ File: 'robot_delivery_models.blend1'
# www.blender.org
o Plane.003_Plane.001
v -0.371287 -0.005316 -0.000000
v 0.371287 1.871688 0.000000
v 0.371287 -0.005316 -0.000000
v -0.371287 1.871688 0.000000
vt 0.247149 0.102126
vt 0.745601 0.904541
vt 0.745601 0.102126
vt 0.247149 0.904541
vn 0.0000 0.0000 -1.0000
s 1
f 1/1/1 2/2/1 3/3/1
f 1/1/1 4/4/1 2/2/1
o Plane.004_Plane.002
v 0.000000 -0.005316 0.371287
v 0.000000 1.871688 -0.371286
v 0.000000 -0.005316 -0.371287
v 0.000000 1.871688 0.371287
vt 0.745601 0.102126
vt 0.247149 0.904541
vt 0.247149 0.102126
vt 0.745601 0.904541
vn -1.0000 0.0000 0.0000
s 1
f 5/5/2 6/6/2 7/7/2
f 5/5/2 8/8/2 6/6/2
